<svg width="1236" height="1183" viewBox="0 0 1236 1183" fill="none" xmlns="http://www.w3.org/2000/svg">
<mask id="mask0_717_3041" style="mask-type:alpha" maskUnits="userSpaceOnUse" x="0" y="0" width="1236" height="1166">
<rect x="0.0292969" width="1235.97" height="1165.34" fill="white"/>
</mask>
<g mask="url(#mask0_717_3041)">
<path fill-rule="evenodd" clip-rule="evenodd" d="M1235.74 582.54C1235.74 904.267 975.952 1165.08 655.494 1165.08C335.036 1165.08 75.2539 904.267 75.2539 582.54C75.2539 260.812 335.036 0 655.494 0C975.952 0 1235.74 260.812 1235.74 582.54C1235.74 904.267 1235.74 582.54 1235.74 582.54Z" fill="#F5F7FF"/>
<path d="M225.704 266.183C224.915 263.806 226.23 261.166 228.597 260.638L278.047 250.339C280.677 249.811 283.044 251.923 283.044 254.564L275.153 373.132C274.89 377.621 268.841 378.413 267.262 374.452L225.704 266.183Z" fill="#D9E0FF"/>
<path d="M320.136 220.76C320.399 218.119 322.766 216.535 325.397 217.327L374.057 230.795C376.687 231.587 377.739 234.492 376.424 236.868L315.139 338.8C313.034 342.497 307.248 340.648 307.774 336.159L320.136 220.76Z" fill="#D9E0FF"/>
<path d="M379.845 296.813C381.16 294.701 384.053 294.173 385.894 295.757L408.778 314.77C410.882 316.619 410.619 319.788 408.515 321.372L351.174 361.511C347.492 364.151 343.021 359.926 345.388 355.965L379.845 296.813Z" fill="#D9E0FF"/>
<path d="M523.981 589.669L56.5798 726.986L8.18254 560.093C3.97409 545.569 12.128 530.517 26.5945 526.292L424.556 409.309C448.492 402.443 473.48 416.175 480.581 440.205L523.981 589.669Z" fill="url(#paint0_linear_717_3041)"/>
<path d="M7.91789 560.095L12.3894 575.675C8.18092 561.152 16.3348 546.099 30.8014 541.874L429.026 425.155C430.078 424.891 430.867 424.627 431.657 424.363C448.753 420.402 461.116 431.229 464.798 444.696L480.054 440.207C472.952 416.177 447.964 402.445 424.029 409.575L26.3299 526.294C26.5929 526.294 26.5929 526.294 26.3299 526.294C11.8633 530.519 3.70944 545.571 7.91789 560.095Z" fill="#3242A7"/>
<path d="M507.675 649.347C510.831 660.437 504.519 672.057 493.472 675.49L82.6213 796.17C71.5741 799.339 60.0008 793.001 56.5815 781.91L7.6582 613.697C4.50186 602.606 10.8145 590.987 21.8617 587.554L432.712 466.874C443.759 463.705 455.595 470.043 458.752 481.134L507.675 649.347Z" fill="url(#paint1_linear_717_3041)"/>
<path d="M89.9848 944.316C94.1933 958.84 109.186 967.026 123.652 962.801L549.495 837.896C573.431 830.766 587.108 805.679 580.007 781.913L480.582 440.47L465.326 444.959C469.272 458.162 464.8 474.007 448.229 480.08C447.44 480.344 446.388 480.608 445.599 480.873L19.4932 605.514C5.28971 609.739 -3.1272 624.791 1.08125 639.315L89.9848 944.316Z" fill="#3242A7"/>
<path d="M553.964 853.212L128.121 978.381C113.654 982.606 98.6618 974.42 94.4533 959.896L5.54973 654.894C1.34127 640.371 9.49516 625.319 23.9617 621.093L449.805 496.188C473.74 489.058 487.418 463.971 480.316 440.205L584.475 797.229C591.577 821.259 577.636 846.346 553.964 853.212Z" fill="url(#paint2_linear_717_3041)"/>
<path d="M141.8 819.149L60.5241 842.915C50.0029 846.084 38.9558 840.01 35.7994 829.448L15.2832 758.677L115.76 729.101C140.222 721.971 166.261 736.231 173.363 761.053C180.465 785.876 166.524 811.755 141.8 819.149Z" fill="#3242A7"/>
<path d="M8.70636 736.23L17.1233 765.278L36.3243 759.732L22.1208 711.407C11.5997 714.576 5.55002 725.667 8.70636 736.23Z" fill="#3242A7"/>
<path fill-rule="evenodd" clip-rule="evenodd" d="M155.308 768.058C157.887 783.299 147.669 797.738 132.485 800.307C117.301 802.876 102.901 792.604 100.322 777.363C97.743 762.122 107.961 747.684 123.146 745.114C138.33 742.545 152.729 752.818 155.308 768.058C157.887 783.299 155.308 768.058 155.308 768.058Z" fill="white"/>
<path d="M1084.23 424.625C1084.23 424.36 1084.23 424.36 1084.23 424.096C1084.23 423.568 1084.23 423.04 1084.23 422.248C1083.18 380.789 1049.25 359.927 1049.25 359.927L1040.57 369.434L788.064 288.1C758.342 278.594 726.515 294.966 717.046 324.806L520.301 940.618L498.47 964.385C499.259 997.658 525.562 1020.1 525.825 1020.37C532.137 1026.97 540.028 1032.25 549.497 1035.16L806.213 1117.81C835.935 1127.32 867.761 1110.94 877.231 1081.1L1081.34 442.053C1083.18 438.092 1083.97 433.603 1084.23 428.85C1084.23 427.529 1084.23 426.209 1084.23 424.625Z" fill="#5D9FE7"/>
<path fill-rule="evenodd" clip-rule="evenodd" d="M906.407 276.622C906.407 302.626 885.327 323.706 859.323 323.706C833.319 323.706 812.238 302.626 812.238 276.622C812.238 250.618 833.319 229.537 859.323 229.537C885.327 229.537 906.407 250.618 906.407 276.622C906.407 302.626 906.407 276.622 906.407 276.622Z" fill="url(#paint3_linear_717_3041)"/>
<path d="M539.555 1014.61C509.832 1005.1 493.525 973.149 502.994 943.309L707.104 304.258C716.573 274.418 748.399 258.046 778.121 267.552L1034.84 350.206C1064.56 359.713 1080.87 391.665 1071.4 421.505L867.288 1060.56C857.819 1090.4 825.993 1106.77 796.27 1097.26L539.555 1014.61Z" fill="url(#paint4_linear_717_3041)"/>
<path d="M992.7 358.608L989.28 368.907C986.124 378.414 976.129 383.695 966.397 380.79L814.366 331.937C804.897 328.768 799.637 318.734 802.53 308.963L805.949 298.664L772.545 287.837C750.977 280.972 727.83 292.855 720.728 314.508L518.46 947.486C511.621 969.139 523.457 992.378 545.025 999.507L798.322 1081.11C819.89 1087.97 843.037 1076.09 850.138 1054.43L1052.41 421.457C1059.77 399.803 1047.67 376.565 1026.1 369.435L992.7 358.608Z" fill="white"/>
<path d="M954.036 730.685L561.861 813.075L539.767 881.997L927.47 813.603L954.036 730.685Z" fill="#EDEFFF"/>
<path d="M603.157 683.679L989.546 618.981L1046.62 440.47L665.495 488.795L603.157 683.679Z" fill="#EDEFFF"/>
<path d="M872.228 334.312C870.387 333.784 869.335 331.671 869.861 329.823C870.387 327.974 872.491 326.918 874.332 327.446L919.31 341.97C921.152 342.498 922.204 344.611 921.678 346.459C921.152 348.308 919.047 349.364 917.206 348.836L872.228 334.312Z" fill="white"/>
<path fill-rule="evenodd" clip-rule="evenodd" d="M946.406 352.536C946.406 355.598 943.933 358.081 940.882 358.081C937.831 358.081 935.358 355.598 935.358 352.536C935.358 349.473 937.831 346.99 940.882 346.99C943.933 346.99 946.406 349.473 946.406 352.536C946.406 355.598 946.406 352.536 946.406 352.536Z" fill="white"/>
<mask id="mask1_717_3041" style="mask-type:alpha" maskUnits="userSpaceOnUse" x="317" y="535" width="584" height="448">
<rect x="317.851" y="535.587" width="582.672" height="447.303" fill="white"/>
</mask>
<g mask="url(#mask1_717_3041)">
<path fill-rule="evenodd" clip-rule="evenodd" d="M506.285 723.582L489.995 713.198L478.048 714.018L463.929 577.668L447.638 567.285L448.996 579.308L416.685 582.587L334.145 749.813L336.86 764.842L323.013 768.667L339.304 779.051L432.162 769.487L425.102 809.927L441.393 820.311L488.365 815.392L482.935 764.022L510.087 761.563L506.285 723.582ZM423.745 647.073L432.433 730.959L380.031 736.424L421.301 652.811L423.745 647.073Z" fill="#F59187"/>
<path fill-rule="evenodd" clip-rule="evenodd" d="M489.991 712.983L493.792 750.964L466.912 753.696L472.343 805.067L425.371 809.985L419.94 758.615L323.009 768.725L317.851 739.214L400.391 572.261L447.906 567.343L463.111 715.715L489.991 712.983ZM416.139 720.634L407.451 636.474L405.007 642.212L363.737 726.099L416.139 720.634Z" fill="#FFA9A0"/>
<path fill-rule="evenodd" clip-rule="evenodd" d="M900.253 764.023L888.034 747.628L882.604 756.099L856.81 744.623L702.861 848.183L696.616 865.397L680.325 859.932L692.543 876.327L781.6 915.948L748.476 946.825L760.694 963.219L803.865 982.346L824.771 935.075L849.479 946.005L864.956 911.029L852.737 894.635L842.42 895.454L900.253 764.023ZM831.016 803.917L797.077 881.245L749.019 859.932L826.129 807.742L831.016 803.917Z" fill="#F59187"/>
<path fill-rule="evenodd" clip-rule="evenodd" d="M852.737 894.965L837.261 929.94L812.553 919.01L791.646 966.282L748.476 947.155L769.382 899.883L680.325 860.263L690.371 832.118L844.32 728.558L888.034 747.959L828.029 884.035L852.737 894.965ZM784.859 864.635L818.798 787.306L813.911 791.131L736.8 843.321L784.859 864.635Z" fill="#FFA9A0"/>
<path fill-rule="evenodd" clip-rule="evenodd" d="M718.063 601.988L706.93 576.849L704.758 582.041C694.984 571.931 681.408 564.827 664.574 561.001C639.323 555.263 618.145 559.088 600.768 573.024C583.391 586.686 571.173 609.912 563.842 642.428L554.067 684.782C549.995 703.909 548.909 721.123 550.809 735.879L545.922 733.146L557.326 759.104C557.597 759.924 558.14 760.744 558.412 761.564C567.915 781.511 585.292 794.353 610.543 800.091C636.065 806.103 657.515 802.004 674.62 787.795C691.726 773.86 703.944 750.634 711.275 718.391L721.049 675.491C727.566 646.527 726.751 622.208 718.606 603.081C718.334 602.808 718.334 602.261 718.063 601.988ZM642.038 754.732L610.271 759.651C603.755 756.099 599.41 750.634 597.238 743.256C594.252 732.873 594.795 718.118 599.139 698.99L612.172 642.155C616.516 624.394 622.218 611.825 629.277 604.721C636.336 597.616 645.296 595.157 656.157 597.616C667.289 600.075 674.62 606.36 677.607 616.47C680.593 625.214 680.593 637.237 677.878 652.265L642.038 754.732Z" fill="#F59187"/>
<path fill-rule="evenodd" clip-rule="evenodd" d="M664.848 765.718C647.742 779.654 626.293 783.752 600.77 778.014C575.519 772.276 558.142 759.433 548.639 739.486C539.136 719.539 537.779 694.128 544.567 662.704L554.07 619.531C561.401 587.015 573.89 563.789 590.996 550.127C608.373 536.465 629.551 532.366 654.802 538.104C680.053 543.842 697.43 556.685 706.933 576.632C716.436 596.306 717.793 621.991 711.006 653.414L701.502 696.314C694.172 728.557 681.953 751.782 664.848 765.718ZM667.835 594.666C664.576 584.556 657.517 578.271 646.385 575.812C635.524 573.353 626.564 575.539 619.505 582.917C612.445 590.021 606.744 602.59 602.399 620.351L589.367 676.913C585.022 696.04 584.479 710.796 587.466 721.179C590.453 731.562 597.784 738.12 608.916 740.853C620.048 743.585 629.279 740.853 636.339 733.202C643.398 725.551 649.1 712.435 653.444 694.401L666.205 638.659C670.55 619.258 671.093 604.503 667.835 594.666Z" fill="#FFA9A0"/>
</g>
<path fill-rule="evenodd" clip-rule="evenodd" d="M1126.31 392.408C1126.31 379.204 1128.68 368.113 1133.42 359.399C1138.15 350.685 1145.25 340.914 1154.46 330.351C1161.3 322.429 1166.56 315.563 1169.71 310.282C1172.87 305 1174.45 298.927 1174.45 292.325C1174.45 285.195 1171.82 279.386 1166.56 275.161C1161.3 270.935 1154.19 268.823 1144.99 268.823C1136.83 268.823 1128.94 270.407 1121.84 273.84C1114.74 277.273 1105.27 282.29 1093.43 289.42C1086.07 293.645 1079.76 295.758 1074.76 295.758C1069.24 295.758 1064.76 293.381 1061.08 288.628C1057.4 283.875 1055.56 278.065 1055.56 271.464C1055.56 266.71 1056.35 262.749 1058.19 259.58C1059.77 256.412 1062.4 253.243 1066.08 250.338C1077.39 241.359 1090.54 234.23 1105.27 229.212C1120 224.195 1134.99 221.554 1149.99 221.554C1166.03 221.554 1180.23 224.459 1193.12 230.004C1206.01 235.814 1215.74 243.472 1222.84 253.507C1229.95 263.541 1233.37 274.632 1233.37 287.044C1233.37 296.55 1231.52 305.265 1227.84 313.187C1224.16 321.109 1219.69 327.975 1214.43 333.784C1209.17 339.594 1202.33 346.724 1193.65 355.438C1183.92 364.416 1176.55 372.074 1171.55 378.148C1166.56 384.222 1163.66 391.087 1162.35 398.481C1161.3 403.499 1159.19 407.196 1156.04 409.837C1152.88 412.477 1148.93 413.798 1144.2 413.798C1138.68 413.798 1134.2 411.949 1131.05 407.988C1127.89 404.027 1126.31 399.01 1126.31 392.408ZM1112.37 467.668C1112.37 458.161 1115.53 450.239 1121.58 443.902C1127.89 437.564 1135.52 434.395 1145.25 434.395C1154.46 434.395 1162.35 437.564 1168.4 443.902C1174.71 450.239 1177.6 458.161 1177.6 467.668C1177.6 477.175 1174.45 485.097 1168.4 491.434C1162.09 497.772 1154.46 500.941 1145.25 500.941C1135.52 500.941 1127.63 497.772 1121.58 491.434C1115.27 485.097 1112.37 477.175 1112.37 467.668Z" fill="url(#paint5_linear_717_3041)"/>
</g>
<path fill-rule="evenodd" clip-rule="evenodd" d="M747.497 1138.86C747.497 1163.24 727.735 1183 703.356 1183C678.977 1183 659.214 1163.24 659.214 1138.86C659.214 1114.48 678.977 1094.72 703.356 1094.72C727.735 1094.72 747.497 1114.48 747.497 1138.86C747.497 1163.24 747.497 1138.86 747.497 1138.86Z" fill="url(#paint6_linear_717_3041)"/>
<path fill-rule="evenodd" clip-rule="evenodd" d="M94.1985 441.418C94.1985 457.671 81.0232 470.846 64.7706 470.846C48.5181 470.846 35.3428 457.671 35.3428 441.418C35.3428 425.166 48.5181 411.99 64.7706 411.99C81.0232 411.99 94.1985 425.166 94.1985 441.418C94.1985 457.671 94.1985 441.418 94.1985 441.418Z" fill="url(#paint7_linear_717_3041)"/>
<path fill-rule="evenodd" clip-rule="evenodd" d="M270.766 982.891C270.766 1012.15 247.051 1035.86 217.796 1035.86C188.542 1035.86 164.826 1012.15 164.826 982.891C164.826 953.636 188.542 929.92 217.796 929.92C247.051 929.92 270.766 953.636 270.766 982.891C270.766 1012.15 270.766 982.891 270.766 982.891Z" fill="url(#paint8_linear_717_3041)"/>
<path fill-rule="evenodd" clip-rule="evenodd" d="M529.731 108.883C529.731 130.012 512.603 147.139 491.475 147.139C470.347 147.139 453.219 130.012 453.219 108.883C453.219 87.7548 470.347 70.627 491.475 70.627C512.603 70.627 529.731 87.7548 529.731 108.883C529.731 130.012 529.731 108.883 529.731 108.883Z" fill="url(#paint9_linear_717_3041)"/>
<path fill-rule="evenodd" clip-rule="evenodd" d="M1112.4 806.324C1112.4 829.077 1093.96 847.523 1071.2 847.523C1048.45 847.523 1030 829.077 1030 806.324C1030 783.57 1048.45 765.125 1071.2 765.125C1093.96 765.125 1112.4 783.57 1112.4 806.324C1112.4 829.077 1112.4 806.324 1112.4 806.324Z" fill="url(#paint10_linear_717_3041)"/>
<defs>
<linearGradient id="paint0_linear_717_3041" x1="-75.729" y1="407.754" x2="-75.4658" y2="829.545" gradientUnits="userSpaceOnUse">
<stop stop-color="#4C61E1"/>
<stop offset="1" stop-color="#3B4DB9"/>
</linearGradient>
<linearGradient id="paint1_linear_717_3041" x1="222.38" y1="537.368" x2="-13.0575" y2="1118.55" gradientUnits="userSpaceOnUse">
<stop stop-color="#6BD984"/>
<stop offset="1" stop-color="#6BCB80"/>
</linearGradient>
<linearGradient id="paint2_linear_717_3041" x1="-88.7717" y1="440.565" x2="-88.1053" y2="1152.63" gradientUnits="userSpaceOnUse">
<stop stop-color="#4C61E1"/>
<stop offset="1" stop-color="#3B4DB9"/>
</linearGradient>
<linearGradient id="paint3_linear_717_3041" x1="812.238" y1="229.537" x2="812.238" y2="323.706" gradientUnits="userSpaceOnUse">
<stop stop-color="#D9E0FF"/>
<stop offset="1" stop-color="#D9E0FF" stop-opacity="0.01"/>
</linearGradient>
<linearGradient id="paint4_linear_717_3041" x1="500.303" y1="264.851" x2="500.303" y2="1099.96" gradientUnits="userSpaceOnUse">
<stop stop-color="#89C1FF"/>
<stop offset="1" stop-color="#65ADFD"/>
</linearGradient>
<linearGradient id="paint5_linear_717_3041" x1="1055.63" y1="152.007" x2="886.484" y2="368.06" gradientUnits="userSpaceOnUse">
<stop stop-color="#FB5072"/>
<stop offset="1" stop-color="#F55978"/>
</linearGradient>
<linearGradient id="paint6_linear_717_3041" x1="659.214" y1="1094.72" x2="659.214" y2="1183" gradientUnits="userSpaceOnUse">
<stop stop-color="#D9E0FF"/>
<stop offset="1" stop-color="#D9E0FF" stop-opacity="0.01"/>
</linearGradient>
<linearGradient id="paint7_linear_717_3041" x1="35.3428" y1="411.99" x2="35.3428" y2="470.846" gradientUnits="userSpaceOnUse">
<stop stop-color="#D9E0FF"/>
<stop offset="1" stop-color="#D9E0FF" stop-opacity="0.01"/>
</linearGradient>
<linearGradient id="paint8_linear_717_3041" x1="164.826" y1="929.92" x2="164.826" y2="1035.86" gradientUnits="userSpaceOnUse">
<stop stop-color="#D9E0FF"/>
<stop offset="1" stop-color="#D9E0FF" stop-opacity="0.01"/>
</linearGradient>
<linearGradient id="paint9_linear_717_3041" x1="453.219" y1="70.627" x2="453.219" y2="147.139" gradientUnits="userSpaceOnUse">
<stop stop-color="#D9E0FF"/>
<stop offset="1" stop-color="#D9E0FF" stop-opacity="0.01"/>
</linearGradient>
<linearGradient id="paint10_linear_717_3041" x1="1030" y1="765.125" x2="1030" y2="847.523" gradientUnits="userSpaceOnUse">
<stop stop-color="#D9E0FF"/>
<stop offset="1" stop-color="#D9E0FF" stop-opacity="0.01"/>
</linearGradient>
</defs>
</svg>
