<svg width="1074" height="1347" viewBox="0 0 1074 1347" fill="none" xmlns="http://www.w3.org/2000/svg">
<path d="M627.878 431.217L630.059 627.352C630.119 632.968 634.002 637.807 639.468 639.121L797.547 660.001L797.906 644.946L695.268 604.799C690.489 602.917 687.382 598.287 687.472 593.149L689.085 469.632C689.264 455.831 679.884 443.763 666.472 440.507L627.878 431.217Z" fill="#EA87B6"/>
<path d="M482.615 283.773C482.615 283.773 470.278 305.519 475.595 328.61C479.269 344.472 479.867 344.651 473.594 352.895C467.321 361.17 461.137 362.603 459.076 375.179C456.298 392.057 448.083 399.076 448.083 399.076C448.083 399.076 458.777 395.253 462.571 385.933C464.991 380.018 466.574 375.657 466.574 375.657C466.574 375.657 466.275 383.812 464.184 391.28C462.78 396.238 459.614 400.719 459.614 400.719C459.614 400.719 479.12 406.215 489.873 394.566C494.653 389.368 507.378 396.687 513.382 394.446C519.386 392.206 515.383 352.358 515.383 352.358L482.615 283.773Z" fill="#1B1529"/>
<path d="M508.394 367.651L504.689 430.679C504.689 430.679 506.691 445.286 527.541 444.062C548.421 442.837 567.748 424.735 567.748 424.735L554.246 342.171L508.394 367.651Z" fill="#EA87B6"/>
<path d="M549.616 355.076C549.616 355.076 549.287 360.751 546.27 364.455C543.253 368.129 507.766 387.994 507.766 387.994L507.617 369.802L549.616 355.076Z" fill="#B3678D"/>
<path d="M515.264 265.731C515.264 265.731 488.559 260.056 484.526 288.373C480.494 316.691 484.108 361.468 491.516 368.1C497.968 373.895 504.361 374.94 523.777 368.877C543.193 362.813 550.482 353.911 550.482 353.911L556.964 339.752C556.964 339.752 583.251 349.878 582.444 329.626C581.638 309.403 568.703 309.821 564.641 314.66C560.608 319.499 557.352 325.175 557.352 325.175C557.352 325.175 554.515 303.339 554.126 293.213C553.738 283.086 551.707 283.504 541.192 278.665C530.647 273.826 515.264 265.731 515.264 265.731Z" fill="#EA87B6"/>
<path d="M507.139 344.143C507.139 344.143 502.568 340.14 500.029 339.393C497.46 338.676 495.638 339.393 495.638 339.393C495.638 339.393 493.458 337.93 491.247 339.393C489.067 340.857 488.141 342.679 488.141 342.679C488.141 342.679 488.499 349.251 495.429 349.788C501.374 350.266 507.139 344.143 507.139 344.143Z" fill="#1B1529"/>
<path d="M496.176 332.224C491.815 332.224 488.499 329.177 488.469 329.147C488.29 328.968 488.17 328.729 488.17 328.46C488.17 328.191 488.26 327.952 488.469 327.773C488.469 327.773 489.216 327.026 490.829 324.547C494.055 319.648 496.236 309.701 496.266 309.611C496.385 309.104 496.893 308.775 497.401 308.894C497.908 309.014 498.237 309.522 498.118 310.03C498.028 310.448 495.817 320.425 492.412 325.622C491.546 326.937 490.889 327.803 490.471 328.341C491.964 329.446 495.698 331.567 499.731 329.416C501.403 328.52 502.837 328.311 503.972 328.789C505.197 329.297 505.555 330.402 505.585 330.521C505.735 331.029 505.436 331.567 504.928 331.716C504.42 331.865 503.883 331.567 503.733 331.059C503.733 331.059 503.584 330.671 503.166 330.521C502.598 330.282 501.672 330.491 500.597 331.089C499.103 331.925 497.58 332.224 496.176 332.224Z" fill="#1B1529"/>
<path d="M517.833 316.392C517.325 316.392 516.787 316.392 516.25 316.362C510.216 316.183 508.363 314.6 508.184 314.421C507.796 314.062 507.796 313.465 508.154 313.077C508.513 312.688 509.11 312.688 509.469 313.017C509.528 313.077 511.142 314.301 516.309 314.451C522.433 314.63 525.958 313.674 525.988 313.644C526.495 313.525 527.003 313.793 527.153 314.301C527.302 314.809 527.003 315.317 526.495 315.466C526.376 315.526 523.299 316.392 517.833 316.392Z" fill="#1B1529"/>
<path d="M485.722 314.421C483.183 314.421 481.808 313.584 481.719 313.555C481.271 313.286 481.121 312.688 481.39 312.24C481.659 311.792 482.256 311.643 482.705 311.912C482.705 311.912 484.079 312.688 486.618 312.449C489.306 312.21 492.323 310.328 492.353 310.328C492.801 310.06 493.369 310.179 493.667 310.627C493.936 311.075 493.817 311.673 493.369 311.941C493.219 312.031 489.933 314.062 486.797 314.361C486.438 314.421 486.05 314.421 485.722 314.421Z" fill="#1B1529"/>
<path d="M505.198 303.996C505.198 303.996 506.99 299.097 508.603 298.798C510.246 298.5 517.953 297.604 525.092 298.649C532.231 299.695 536.831 303.996 536.831 303.996C536.831 303.996 521.239 301.756 515.145 302.353C509.051 302.98 505.198 303.996 505.198 303.996Z" fill="#1B1529"/>
<path d="M494.952 303.697C494.952 303.697 495.848 300.591 494.055 299.396C492.263 298.201 483.063 300.441 483.063 300.441L482.615 304.444L494.952 303.697Z" fill="#1B1529"/>
<path d="M568.136 320.843C570.317 318.513 574.17 317.676 575.664 321.351C577.157 325.025 577.008 331.059 572.975 334.584C568.943 338.108 567.628 336.555 567.12 335.868C565.955 334.285 568.046 330.641 568.614 329.057C569.301 327.205 565.955 323.203 568.136 320.843Z" fill="#1B1529"/>
<path d="M519.207 270.988C519.954 271.227 532.052 280.577 538.743 282.518C545.643 284.52 546.808 287.925 548.391 299.306C551.199 319.439 557.382 326.937 557.382 326.937C557.382 326.937 562.281 313.316 569.032 314.062C575.783 314.809 582.056 320.903 580.562 329.596C579.099 337.989 576.56 341.365 571.034 341.365C565.507 341.365 560.847 337.87 556.934 339.752C553.021 341.634 543.731 347.877 543.253 364.933C542.775 381.99 538.982 395.999 534.232 398.24C529.483 400.48 525.211 400.749 525.211 400.749C525.211 400.749 533.217 412.757 549.018 406.753C564.79 400.749 570.795 387.456 584.087 387.964C597.38 388.472 609.627 395.492 619.395 384.708C629.163 373.924 625.16 353.403 614.885 346.891C604.609 340.379 598.605 337.631 604.101 328.849C609.597 320.096 621.874 311.553 612.375 299.784C602.846 288.015 584.446 286.76 582.325 273.497C580.562 262.505 576.56 244.94 559.294 250.198C542.029 255.455 542.775 249.69 532.231 248.435C521.716 247.181 510.455 250.437 497.909 258.203C485.363 265.97 479.508 259.368 475.804 273.915C472.847 285.625 483.093 300.411 483.093 300.411C483.093 300.411 485.632 286.252 492.651 279.233C499.671 272.243 519.207 270.988 519.207 270.988Z" fill="#1B1529"/>
<path d="M492.053 317.617C492.565 317.617 492.979 317.203 492.979 316.691C492.979 316.18 492.565 315.765 492.053 315.765C491.542 315.765 491.127 316.18 491.127 316.691C491.127 317.203 491.542 317.617 492.053 317.617Z" fill="#1B1529"/>
<path d="M487.722 318.931C488.234 318.931 488.648 318.517 488.648 318.005C488.648 317.494 488.234 317.079 487.722 317.079C487.211 317.079 486.796 317.494 486.796 318.005C486.796 318.517 487.211 318.931 487.722 318.931Z" fill="#1B1529"/>
<path d="M483.839 319.021C484.351 319.021 484.765 318.607 484.765 318.095C484.765 317.584 484.351 317.169 483.839 317.169C483.328 317.169 482.913 317.584 482.913 318.095C482.913 318.607 483.328 319.021 483.839 319.021Z" fill="#1B1529"/>
<path d="M508.572 319.589C509.084 319.589 509.498 319.174 509.498 318.663C509.498 318.151 509.084 317.737 508.572 317.737C508.061 317.737 507.646 318.151 507.646 318.663C507.646 319.174 508.061 319.589 508.572 319.589Z" fill="#1B1529"/>
<path d="M514.01 321.889C514.521 321.889 514.936 321.474 514.936 320.963C514.936 320.451 514.521 320.037 514.01 320.037C513.498 320.037 513.083 320.451 513.083 320.963C513.083 321.474 513.498 321.889 514.01 321.889Z" fill="#1B1529"/>
<path d="M519.087 322.336C519.648 322.336 520.103 321.881 520.103 321.321C520.103 320.76 519.648 320.305 519.087 320.305C518.526 320.305 518.072 320.76 518.072 321.321C518.072 321.881 518.526 322.336 519.087 322.336Z" fill="#1B1529"/>
<path d="M523.627 321.53C524.188 321.53 524.643 321.075 524.643 320.514C524.643 319.953 524.188 319.499 523.627 319.499C523.067 319.499 522.612 319.953 522.612 320.514C522.612 321.075 523.067 321.53 523.627 321.53Z" fill="#1B1529"/>
<path d="M527.092 319.588C527.653 319.588 528.108 319.134 528.108 318.573C528.108 318.012 527.653 317.557 527.092 317.557C526.531 317.557 526.077 318.012 526.077 318.573C526.077 319.134 526.531 319.588 527.092 319.588Z" fill="#1B1529"/>
<path d="M563.297 1186.21C556.456 1214.02 547.763 1268 548.928 1270.51C555.44 1284.82 515.174 1277.62 517.982 1259.55C524.793 1215.82 517.743 1171.61 520.969 1168.26C527.391 1161.6 537.607 1151.03 540.296 1140.3C543.133 1129.01 580.472 991.752 580.472 991.752L528.048 869.997L635.704 913.22C638.034 919.075 656.853 979.057 651.506 990.676C632.807 1031.27 569.301 1161.81 563.297 1186.21Z" fill="#B3678D"/>
<path d="M492.502 1250.85C493.487 1279.47 496.295 1315.62 498.924 1322.7C501.553 1329.77 516.309 1340.92 512.037 1344.26C507.766 1347.61 471.174 1349.13 464.542 1341.39C457.911 1333.66 456.955 1305.43 455.461 1285.57C454.565 1273.5 450.951 1262.83 448.232 1256.32C446.47 1252.05 446.679 1247.21 448.86 1243.12C453.221 1234.96 459.255 1223.94 457.851 1212.95C455.372 1193.65 433.476 941.777 433.476 941.777L525.061 892.161C525.121 892.131 491.546 1222.21 492.502 1250.85Z" fill="#EA87B6"/>
<path d="M796.92 644.707C785.121 649.367 783.568 657.671 783.568 657.671L806.419 661.525L855.856 662.182C855.856 662.182 883.995 652.623 885.13 650.801C888.595 645.304 884.921 644.498 883.248 645.006L796.92 644.707Z" fill="#EA87B6"/>
<path d="M100.621 301.547H420.602L372.748 276.276H145.039L100.621 301.547Z" fill="#454EA0"/>
<path d="M372.778 141.048H145.04V277.022H372.778V141.048Z" fill="#454EA0"/>
<path d="M153.941 270.122C153.941 270.122 155.344 146.843 153.941 148.397C152.537 149.95 365.1 148.397 365.1 148.397V270.122H153.941Z" fill="#1B1529"/>
<path d="M420.572 301.517H100.621V307.819H420.572V301.517Z" fill="#46B4C3"/>
<path d="M258.49 191.381L270.17 189.559L272.231 173.667L273.993 189.619L287.734 190.933L274.531 193.353L271.783 207.332L270.26 193.173L258.49 191.381Z" fill="white"/>
<path d="M198.27 247.868L204.781 246.852L205.917 238.01L206.902 246.882L214.549 247.629L207.201 248.943L205.678 256.74L204.811 248.854L198.27 247.868Z" fill="white"/>
<path d="M171.117 197.774L178.824 196.579L180.198 186.035L181.363 196.609L190.474 197.505L181.721 199.088L179.899 208.349L178.884 198.969L171.117 197.774Z" fill="#FFDF6E"/>
<path d="M315.424 247.33L323.131 246.135L324.505 235.591L325.7 246.165L334.781 247.061L326.029 248.644L324.206 257.904L323.191 248.525L315.424 247.33Z" fill="#FFDF6E"/>
<path d="M295.68 216.414C296.637 216.414 297.412 215.638 297.412 214.681C297.412 213.724 296.637 212.949 295.68 212.949C294.723 212.949 293.947 213.724 293.947 214.681C293.947 215.638 294.723 216.414 295.68 216.414Z" fill="white"/>
<path d="M216.192 169.187C217.694 169.187 218.911 167.97 218.911 166.469C218.911 164.968 217.694 163.751 216.192 163.751C214.691 163.751 213.474 164.968 213.474 166.469C213.474 167.97 214.691 169.187 216.192 169.187Z" fill="white"/>
<path d="M329.434 175.938C330.539 175.938 331.435 175.042 331.435 173.937C331.435 172.832 330.539 171.936 329.434 171.936C328.329 171.936 327.433 172.832 327.433 173.937C327.433 175.042 328.329 175.938 329.434 175.938Z" fill="white"/>
<path d="M220.882 213.456C221.707 213.456 222.376 212.787 222.376 211.963C222.376 211.138 221.707 210.469 220.882 210.469C220.057 210.469 219.389 211.138 219.389 211.963C219.389 212.787 220.057 213.456 220.882 213.456Z" fill="white"/>
<path d="M285.643 256.322C286.468 256.322 287.137 255.653 287.137 254.828C287.137 254.003 286.468 253.335 285.643 253.335C284.818 253.335 284.149 254.003 284.149 254.828C284.149 255.653 284.818 256.322 285.643 256.322Z" fill="white"/>
<path d="M639.29 638.793H959.27L911.417 613.522H683.708L639.29 638.793Z" fill="#454EA0"/>
<path d="M911.446 478.265H683.708V614.239H911.446V478.265Z" fill="#454EA0"/>
<path d="M692.609 607.338C692.609 607.338 694.013 484.059 692.609 485.613C691.206 487.166 903.769 485.613 903.769 485.613V607.338H692.609Z" fill="#1B1529"/>
<path d="M959.241 638.763H639.29V645.066H959.241V638.763Z" fill="#46B4C3"/>
<path d="M797.159 528.627L808.839 526.775L810.9 510.884L812.692 526.835L826.433 528.179L813.23 530.569L810.452 544.579L808.928 530.42L797.159 528.627Z" fill="white"/>
<path d="M736.968 585.084L743.45 584.068L744.585 575.227L745.571 584.098L753.218 584.845L745.87 586.189L744.346 593.956L743.48 586.1L736.968 585.084Z" fill="white"/>
<path d="M709.786 535.02L717.492 533.795L718.867 523.281L720.061 533.855L729.142 534.721L720.39 536.334L718.598 545.595L717.552 536.215L709.786 535.02Z" fill="#FFDF6E"/>
<path d="M854.093 584.576L861.83 583.351L863.204 572.837L864.369 583.411L873.45 584.277L864.727 585.861L862.905 595.151L861.86 585.771L854.093 584.576Z" fill="#FFDF6E"/>
<path d="M834.349 553.63C835.306 553.63 836.081 552.854 836.081 551.898C836.081 550.941 835.306 550.165 834.349 550.165C833.392 550.165 832.616 550.941 832.616 551.898C832.616 552.854 833.392 553.63 834.349 553.63Z" fill="white"/>
<path d="M754.861 506.434C756.363 506.434 757.58 505.217 757.58 503.715C757.58 502.214 756.363 500.997 754.861 500.997C753.36 500.997 752.143 502.214 752.143 503.715C752.143 505.217 753.36 506.434 754.861 506.434Z" fill="white"/>
<path d="M868.103 513.155C869.208 513.155 870.104 512.259 870.104 511.153C870.104 510.048 869.208 509.152 868.103 509.152C866.998 509.152 866.102 510.048 866.102 511.153C866.102 512.259 866.998 513.155 868.103 513.155Z" fill="white"/>
<path d="M759.551 550.702C760.376 550.702 761.045 550.034 761.045 549.209C761.045 548.384 760.376 547.715 759.551 547.715C758.726 547.715 758.058 548.384 758.058 549.209C758.058 550.034 758.726 550.702 759.551 550.702Z" fill="white"/>
<path d="M824.312 593.568C825.137 593.568 825.805 592.899 825.805 592.074C825.805 591.25 825.137 590.581 824.312 590.581C823.487 590.581 822.818 591.25 822.818 592.074C822.818 592.899 823.487 593.568 824.312 593.568Z" fill="white"/>
<path d="M488.797 495.74L319.338 493.559C313.722 493.5 308.883 489.616 307.568 484.15L269.064 325.772L302.46 327.385L341.92 428.35C343.802 433.13 348.432 436.236 353.57 436.147L466.484 434.235L488.797 495.74Z" fill="#EA87B6"/>
<path d="M590.18 424.616H475.236V485.255H590.18V424.616Z" fill="#EA87B6"/>
<path d="M641.888 536.783L669.041 424.616H584.356V461.178H493.069L493.995 424.616H400.08L439.002 536.783L350.643 1000.68C350.643 1000.68 439.659 1066.91 507.527 988.555C586.208 897.717 726.991 972.515 726.991 972.515L641.888 536.783Z" fill="#1B1529"/>
<path d="M287.435 307.76C299.235 312.42 302.431 327.385 302.431 327.385L275.666 328.013L230.77 324.398C230.77 324.398 199.017 317.259 197.852 315.437C194.386 309.941 199.375 307.551 201.048 308.059L287.435 307.76Z" fill="#EA87B6"/>
<path d="M839.725 826.892C831.062 826.892 822.31 826.414 813.468 825.488C680.87 811.24 564.462 696.146 502.09 517.665C494.204 495.082 486.677 464.584 478.253 429.246C466.155 431.576 453.759 434.055 441.123 436.744C326.208 460.969 224.288 454.726 146.354 418.672C79.4719 387.725 31.2895 335.391 10.7381 271.287C-22.0605 169.097 22.2983 65.0259 116.213 23.8633C183.723 -5.73908 243.913 -7.8002 295.083 17.68C413.552 76.7355 459.345 266.956 492.561 407.231C634.629 381.362 753.905 376.374 847.76 392.355C938.928 407.888 1003.96 442.449 1041.03 495.023C1092.91 568.625 1074.12 655.64 1039.21 712.545C994.518 785.401 921.274 826.892 839.725 826.892ZM520.043 511.362C579.935 682.763 690.399 793.108 815.529 806.58C899.916 815.691 977.521 776.798 1023.04 702.598C1054.8 650.861 1072.12 572.031 1025.55 505.955C983.525 446.332 859.41 359.825 497.012 425.721C505.167 460.163 512.515 489.825 520.043 511.362ZM218.433 19.0242C189.249 19.0242 157.645 26.4323 123.861 41.2484C39.056 78.4381 -0.911698 172.712 28.8401 265.462C47.7486 324.428 92.3165 372.7 154.329 401.376C228.5 435.698 326.298 441.493 437.18 418.104C449.547 415.505 461.794 413.026 473.832 410.726C441.482 274.214 396.854 89.6697 286.569 34.6767C265.689 24.2517 242.897 19.0242 218.433 19.0242Z" fill="#FFDF6E"/>
</svg>
