<svg width="20" height="32" viewBox="0 0 20 32" fill="none" xmlns="http://www.w3.org/2000/svg">
<path d="M2.11608 8.9928L10.5519 0.433962C11.1281 -0.196189 11.3353 -0.135764 11.5317 0.587184L11.6072 6.69232C11.5856 7.64618 11.5166 8.05836 11.2295 8.45113L6.10848 13.7297C5.43949 14.5584 5.53012 14.8886 5.50639 15.2576C5.48265 15.6267 6.1538 16.7035 7.31268 16.7855C7.31268 16.7855 10.4483 16.7855 10.7785 16.7855C11.1087 16.7855 11.3396 17.3164 10.7785 17.8646L3.69794 24.9602C2.82177 25.7868 2.32542 25.7846 1.43846 25.4954C0.0767238 24.7315 0.0508271 24.028 0.00334994 22.7979V14.9533C-0.0398111 12.4694 0.316268 11.1444 2.11608 8.9928Z" fill="#FF6100"/>
<path d="M17.3933 23.0094L8.70073 31.5661C8.10726 32.1962 7.89362 32.1358 7.69292 31.4128L7.61523 25.3012C7.63681 24.3474 7.70802 23.9352 8.00152 23.5446L13.2801 18.2724C13.9685 17.4438 13.8757 17.1136 13.8995 16.7445C13.9232 16.3755 13.2283 15.2986 12.0371 15.2166H8.46766C8.12884 15.2166 7.8893 14.6858 8.46766 14.1376L15.7575 7.04193C16.6618 6.2154 17.1711 6.21756 18.0861 6.50674C19.491 7.27069 19.5147 7.97637 19.56 9.2043V17.051C19.614 19.5349 19.2471 20.8578 17.3933 23.0094Z" fill="#FF6100"/>
</svg>
